# xmcd
#
# Track frame offsets: 
#        182
#        22745
#        35950
#        59200
#        87370
#        108520
#        118282
#        136397
#        149467
#        165992
#        187157
#        209445
#
# Disc length: 3095 seconds
#
# Revision: 7
# Processed by: cddbd v1.5.2PL0 Copyright (c) Steve Scherf et al.
# Submitted via: ExactAudioCopy v1.3
#
DISCID=ba0c150c
DTITLE=Renaud - Putain De Camion
DYEAR=1988
DGENRE=Chanson
TTITLE0=Jonathan
TTITLE1=Il Pleut
TTITLE2=La Mère  Titi
TTITLE3=Triviale Poursuite
TTITLE4=Me Jette Pas
TTITLE5=Rouge-Gorge
TTITLE6=Allongés Sous Les Vagues
TTITLE7=Cent Ans
TTITLE8=Socialiste
TTITLE9=Petite
TTITLE10=Chanson Dégueulasse
TTITLE11=Putain De Camion
EXTD=
EXTT0=
EXTT1=
EXTT2=
EXTT3=
EXTT4=
EXTT5=
EXTT6=
EXTT7=
EXTT8=
EXTT9=
EXTT10=
EXTT11=
PLAYORDER=
